# xmcd
#
# Track frame offsets:
#	150
#	15617
#	47113
#	62119
#	77584
#	91305
#	106500
#	124708
#	148795
#	165671
#	189997
#	214273
#
# Disc length: 3138 seconds
#
# Revision: 4
# Processed by: cddbd v1.4PL0 Copyright (c) Steve Scherf et al.
# Submitted via: CDmax 1.8
#
DISCID=9a0c400c
DTITLE=Bruce Springsteen - Is a Dream a Lie? Country and Folk Collection: 1980
DTITLE=Various Artist - 2000 [CD1]
DYEAR=2003
DGENRE=Country
TTITLE0=I Ain't Got No Home
TTITLE1=Tom Joad Blues
TTITLE2=Deportee (Place Wreck at Los Gatos)
TTITLE3=Satan's Jewel Crown
TTITLE4=Give My Love To Rose
TTITLE5=Ballad of Easy Rider
TTITLE6=Mary Queen of Arkansas
TTITLE7=Racing in the Street
TTITLE8=Factory
TTITLE9=Independence Day
TTITLE10=The Price You Pay
TTITLE11=Wreck on the Highway
EXTD=
EXTT0=
EXTT1=
EXTT2=
EXTT3=
EXTT4=
EXTT5=
EXTT6=
EXTT7=
EXTT8=
EXTT9=
EXTT10=
EXTT11=
PLAYORDER=
